<svg xmlns="http://www.w3.org/2000/svg" width="720" height="480" viewBox="0 0 720 480">
  <defs>
    <linearGradient id="bg-omz" x1="0" y1="0" x2="1" y2="1">
      <stop offset="0" stop-color="rgba(37,99,235,0.12)"/>
      <stop offset="1" stop-color="rgba(249,250,251,1)"/>
    </linearGradient>
    <linearGradient id="cap-omz" x1="0" y1="0" x2="1" y2="1">
      <stop offset="0" stop-color="rgba(245,158,11,0.88)"/>
      <stop offset="1" stop-color="rgba(37,99,235,0.80)"/>
    </linearGradient>
  </defs>

  <rect x="0" y="0" width="720" height="480" rx="34" fill="url(#bg-omz)"/>

  <!-- capsule + shield -->
  <g transform="translate(0,0)">
    <rect x="232" y="158" width="256" height="148" rx="74" fill="url(#cap-omz)" opacity="0.95"/>
    <rect x="360" y="158" width="128" height="148" rx="74" fill="rgba(255,255,255,0.18)"/>
    <line x1="360" y1="178" x2="360" y2="286" stroke="rgba(255,255,255,0.55)" stroke-width="8"/>

    <path d="M520 164c26 0 46 20 46 46v22c0 48-39 78-46 82c-7-4-46-34-46-82v-22c0-26 20-46 46-46Z"
      fill="rgba(37,99,235,0.14)" stroke="rgba(37,99,235,0.22)" stroke-width="2"/>
    <path d="M520 186c14 0 26 12 26 26v14c0 28-22 46-26 49c-4-3-26-21-26-49v-14c0-14 12-26 26-26Z"
      fill="rgba(245,158,11,0.18)"/>
  </g>

  <g font-family="Inter, system-ui, -apple-system, Segoe UI, Roboto, Helvetica, Arial" fill="rgba(17,24,39,0.82)">
    <text x="50%" y="392" text-anchor="middle" font-size="26" font-weight="800" letter-spacing="-0.01em">Omeprazole</text>
    <text x="50%" y="422" text-anchor="middle" font-size="14" font-weight="600" opacity="0.9">20mg • capsules</text>
  </g>
</svg>
